<?xml version="1.0" encoding="UTF-8"?>
<!DOCTYPE svg PUBLIC "-//W3C//DTD SVG 1.1//EN" "http://www.w3.org/Graphics/SVG/1.1/DTD/svg11.dtd">
<!-- Creator: CorelDRAW 2021 (64-Bit) -->
<svg xmlns="http://www.w3.org/2000/svg" xml:space="preserve" width="200mm" height="150mm" version="1.1" style="shape-rendering:geometricPrecision; text-rendering:geometricPrecision; image-rendering:optimizeQuality; fill-rule:evenodd; clip-rule:evenodd"
viewBox="0 0 20000 15000"
 xmlns:xlink="http://www.w3.org/1999/xlink"
 xmlns:xodm="http://www.corel.com/coreldraw/odm/2003">
 <defs>
  <style type="text/css">
   <![CDATA[
    .str1 {stroke:#00EBFF;stroke-width:1000;stroke-linecap:round;stroke-linejoin:round;stroke-miterlimit:22.9256}
    .str0 {stroke:#00EBFF;stroke-width:20;stroke-linecap:round;stroke-linejoin:round;stroke-miterlimit:22.9256}
    .fil1 {fill:#00EBFF}
    .fil0 {fill:none}
   ]]>
  </style>
 </defs>
 <g id="Layer_x0020_1">
  <metadata id="CorelCorpID_0Corel-Layer"/>
  <path class="fil0" d="M28378.45 13875.86l1435.43 4824.91c1564.86,-17.86 3129.74,-35.73 4694.6,-53.58 941.73,-10.74 833.54,-71.36 96.76,479l-3786.36 2828.48c476.83,1488.68 953.66,2977.35 1430.48,4466.04 358.17,1118.22 478.41,1094.77 -458.84,361.95l-3602.8 -2816.97c-1221.4,955.01 -2442.8,1910 -3664.2,2865 -911.49,712.67 -733.64,639.74 -396.45,-413.03l1429.5 -4462.99c-1286.78,-961.25 -2573.57,-1922.5 -3860.36,-2883.75 -699.57,-522.57 -709.4,-433.76 158.35,-423.87l4707.02 53.72 1440.67 -4842.54c225.54,-758.08 153.29,-731.58 376.2,17.63zm-53.52 1959.4l1035.59 3482.66c1128.96,-12.89 2257.94,-25.79 3386.91,-38.68 679.4,-7.75 601.35,-51.5 69.8,345.75l-2731.66 2041.61c344.01,1074.55 688.01,2149.09 1032.02,3223.64 258.39,807.14 345.15,790.2 -331.03,261.25l-2599.23 -2033.31c-881.18,689.34 -1762.36,1378.66 -2643.53,2067.98 -657.59,514.41 -529.29,461.77 -286.01,-298.12l1031.31 -3221.44c-928.35,-693.83 -1856.71,-1387.67 -2785.05,-2081.5 -504.71,-377.2 -511.8,-313.09 114.23,-305.96l3395.87 38.78 1039.37 -3495.38c162.72,-547.19 110.59,-528.06 271.41,12.72z"/>
  <path class="fil1 str0" d="M35492.63 4034.22l1025.31 3446.36c1117.76,-12.75 2235.53,-25.52 3353.29,-38.27 672.66,-7.67 595.38,-50.97 69.11,342.14l-2704.54 2020.34c340.59,1063.35 681.18,2126.69 1021.77,3190.04 255.83,798.73 341.72,781.97 -327.74,258.53l-2573.43 -2012.12c-872.43,682.15 -1744.86,1364.29 -2617.29,2046.43 -651.06,509.05 -524.03,456.95 -283.17,-295.02l1021.07 -3187.86c-919.13,-686.6 -1838.27,-1373.21 -2757.4,-2059.81 -499.7,-373.27 -506.72,-309.83 113.1,-302.77l3362.16 38.37 1029.05 -3458.95c161.1,-541.49 109.49,-522.56 268.71,12.59z"/>
  <polygon class="fil1 str1" points="7567.77,609.13 9152.76,5934.08 14459,5873.56 10132.33,9104.04 11826.78,14391.59 7567.77,11063.19 3308.76,14391.59 5003.22,9104.04 676.54,5873.56 5982.79,5934.08 "/>
 </g>
</svg>
